<?xml version="1.0" encoding="UTF-8"?>
<!DOCTYPE svg PUBLIC "-//W3C//DTD SVG 1.1//EN" "http://www.w3.org/Graphics/SVG/1.1/DTD/svg11.dtd">
<svg xmlns="http://www.w3.org/2000/svg" version="1.1" width="581px" height="488px" style="shape-rendering:geometricPrecision; text-rendering:geometricPrecision; image-rendering:optimizeQuality; fill-rule:evenodd; clip-rule:evenodd" xmlns:xlink="http://www.w3.org/1999/xlink">
<g><path style="opacity:0.991" fill="#B27B3F" d="M 77.5,-0.5 C 218.833,-0.5 360.167,-0.5 501.5,-0.5C 544.833,8.83333 571.167,35.1667 580.5,78.5C 580.5,159.833 580.5,241.167 580.5,322.5C 574.208,357.231 554.875,381.731 522.5,396C 513.125,399.396 503.458,401.396 493.5,402C 446.163,402.167 398.83,402.667 351.5,403.5C 336.083,427.999 320.916,452.666 306,477.5C 303.304,481.361 300.137,484.694 296.5,487.5C 292.167,487.5 287.833,487.5 283.5,487.5C 280.562,485.066 277.729,482.399 275,479.5C 259.698,454.035 244.198,428.701 228.5,403.5C 180.17,402.667 131.837,402.167 83.5,402C 37.2553,395.253 9.25534,369.086 -0.5,323.5C -0.5,241.5 -0.5,159.5 -0.5,77.5C 8.59009,34.6162 34.5901,8.61622 77.5,-0.5 Z M 190.5,114.5 C 216.212,114.704 232.046,127.37 238,152.5C 238.958,157.123 239.625,161.79 240,166.5C 240.5,199.165 240.667,231.832 240.5,264.5C 229.167,264.5 217.833,264.5 206.5,264.5C 206.667,232.165 206.5,199.832 206,167.5C 205.165,160.665 202.332,154.832 197.5,150C 195.35,148.589 193.016,147.755 190.5,147.5C 190.5,136.5 190.5,125.5 190.5,114.5 Z M 63.5,117.5 C 74.8333,117.5 86.1667,117.5 97.5,117.5C 97.1671,136.179 97.5004,154.845 98.5,173.5C 115.694,158.772 134.36,156.606 154.5,167C 169.344,179.019 177.344,194.686 178.5,214C 176.843,246.491 159.843,264.658 127.5,268.5C 115.552,268.11 106.052,263.11 99,253.5C 98.5014,257.152 98.3347,260.818 98.5,264.5C 86.8333,264.5 75.1667,264.5 63.5,264.5C 63.5,215.5 63.5,166.5 63.5,117.5 Z M 317.5,160.5 C 362.914,158.748 384.747,180.415 383,225.5C 379.008,243.832 368.174,256.332 350.5,263C 329.183,271.279 308.516,269.945 288.5,259C 270.558,244.863 263.391,226.363 267,203.5C 270.542,186.631 280.042,174.464 295.5,167C 302.779,164.186 310.113,162.019 317.5,160.5 Z M 443.5,160.5 C 458.774,158.317 471.774,162.65 482.5,173.5C 483.487,170.232 483.82,166.898 483.5,163.5C 494.5,163.5 505.5,163.5 516.5,163.5C 516.667,199.835 516.5,236.168 516,272.5C 512.416,298.084 497.916,313.251 472.5,318C 465.508,318.5 458.508,318.666 451.5,318.5C 451.5,308.5 451.5,298.5 451.5,288.5C 476.238,289.757 486.571,278.09 482.5,253.5C 463.648,269.124 443.648,270.624 422.5,258C 404.089,239.522 398.589,217.688 406,192.5C 412.569,174.756 425.069,164.09 443.5,160.5 Z"/></g>
<g><path style="opacity:0.959" fill="#B27B3F" d="M 115.5,191.5 C 136.706,191.278 145.873,201.612 143,222.5C 134.996,237.723 123.163,241.556 107.5,234C 94.6255,221.668 94.2922,209.001 106.5,196C 109.592,194.454 112.592,192.954 115.5,191.5 Z"/></g>
<g><path style="opacity:0.952" fill="#B27B3F" d="M 319.5,191.5 C 340.964,191.792 349.797,202.458 346,223.5C 337.699,238.094 325.866,241.594 310.5,234C 297.046,220.601 297.38,207.601 311.5,195C 314.158,193.522 316.825,192.355 319.5,191.5 Z"/></g>
<g><path style="opacity:0.961" fill="#B27B3F" d="M 456.5,191.5 C 475.644,191.143 484.81,200.476 484,219.5C 479.393,233.894 469.56,239.728 454.5,237C 441.083,231.671 435.916,221.838 439,207.5C 442.536,199.456 448.369,194.123 456.5,191.5 Z"/></g>
</svg>
